<svg width="512" height="512" viewBox="0 0 512 512" fill="none" xmlns="http://www.w3.org/2000/svg">
<path d="M284.736 29.215C282.401 29.1997 280.056 29.216 277.701 29.264C244.726 29.928 209.915 36.76 179.383 50.496C144.488 66.194 115.326 90.659 99.404 125.168C84.404 157.68 81.044 199.759 96.896 253.453C101.327 251.427 105.831 249.562 110.398 247.863C100.532 203.902 104.781 167.618 118.699 138.853C134.163 106.895 161.163 84.703 191.649 70.551C222.133 56.398 256.232 50.057 287.387 49.601C289.334 49.573 291.268 49.5667 293.191 49.582C316.038 49.768 337.005 53.076 353.805 59.418C360.925 56.058 367.415 52.524 372.719 48.566C352.272 37.455 323.339 30.412 291.703 29.354C289.381 29.276 287.059 29.2303 284.736 29.215ZM293.029 67.588C291.249 67.5687 289.456 67.5727 287.65 67.6C258.77 68.021 226.9 74.03 199.229 86.877C171.558 99.724 148.216 119.18 134.902 146.695C123.05 171.19 118.85 202.468 127.66 242.59C140.032 239.686 151.407 239.096 161.225 241.395C171.155 243.72 180.141 250.542 182.957 260.707C183.263 261.813 183.477 262.942 183.658 264.08L285.861 161.877C274.004 142.887 270.033 127.093 273.643 113.461C277.648 98.336 290.083 88.823 303.691 81.664C311.127 77.752 319.178 74.252 327.238 70.864C316.895 68.89 305.282 67.714 293.029 67.588ZM376.086 135.914L327.578 145.615L293.336 179.857H332.143V218.662L366.385 184.42L376.086 135.914ZM463.434 139.281C459.478 144.582 455.945 151.069 452.586 158.186C459.462 176.399 462.765 199.521 462.398 224.613C461.943 255.768 455.602 289.867 441.449 320.352C427.296 350.837 405.105 377.837 373.146 393.301C344.382 407.219 308.098 411.468 264.136 401.601C262.437 406.168 260.572 410.672 258.546 415.104C312.241 430.956 354.32 427.596 386.832 412.596C421.342 396.674 445.806 367.512 461.504 332.617C477.202 297.722 483.883 257.241 482.646 220.297C481.588 188.66 474.546 159.728 463.434 139.281ZM441.137 184.761C437.747 192.821 434.247 200.873 430.336 208.309C423.177 221.917 413.664 234.352 398.539 238.357C384.907 241.967 369.114 237.996 350.123 226.139L247.92 328.342C249.058 328.523 250.187 328.737 251.293 329.043C261.458 331.859 268.28 340.845 270.605 350.775C272.905 360.593 272.314 371.968 269.41 384.34C309.532 393.15 340.81 388.95 365.305 377.098C392.82 363.784 412.276 340.442 425.123 312.771C437.97 285.1 443.979 253.229 444.4 224.35C444.608 210.122 443.396 196.607 441.137 184.761ZM280.609 197.857V231.391H314.143V197.857H280.609ZM262.609 210.584L228.365 244.828L218.666 293.334L267.172 283.634L301.416 249.391H262.609V210.584ZM205.419 267.774L168.385 304.809L207.191 343.615L244.227 306.58L195.719 316.281L205.419 267.774ZM155.659 317.535L129.734 343.457L168.543 382.266L194.465 356.342L155.659 317.535ZM117.008 356.185L16 457.194V496H54.807L155.814 394.992L117.008 356.185Z" fill="#545454"/>
</svg>
